<?xml version="1.0" encoding="UTF-8" standalone="no"?>
<!-- Created with Inkscape (http://www.inkscape.org/) -->

<svg
   xmlns:dc="http://purl.org/dc/elements/1.1/"
   xmlns:cc="http://creativecommons.org/ns#"
   xmlns:rdf="http://www.w3.org/1999/02/22-rdf-syntax-ns#"
   xmlns:svg="http://www.w3.org/2000/svg"
   xmlns="http://www.w3.org/2000/svg"
   xmlns:sodipodi="http://sodipodi.sourceforge.net/DTD/sodipodi-0.dtd"
   xmlns:inkscape="http://www.inkscape.org/namespaces/inkscape"
   width="68.73822mm"
   height="10.532533mm"
   viewBox="0 0 68.73822 10.532533"
   version="1.1"
   id="svg8"
   inkscape:version="0.92.2 2405546, 2018-03-11"
   sodipodi:docname="logoFull.svg">
  <defs
     id="defs2" />
  <sodipodi:namedview
     id="base"
     pagecolor="#ffffff"
     bordercolor="#666666"
     borderopacity="1.0"
     inkscape:pageopacity="0.0"
     inkscape:pageshadow="2"
     inkscape:zoom="3.959798"
     inkscape:cx="123.49706"
     inkscape:cy="49.319297"
     inkscape:document-units="mm"
     inkscape:current-layer="layer1"
     showgrid="false"
     inkscape:window-width="1256"
     inkscape:window-height="1380"
     inkscape:window-x="1288"
     inkscape:window-y="16"
     inkscape:window-maximized="0" />
  <metadata
     id="metadata5">
    <rdf:RDF>
      <cc:Work
         rdf:about="">
        <dc:format>image/svg+xml</dc:format>
        <dc:type
           rdf:resource="http://purl.org/dc/dcmitype/StillImage" />
        <dc:title />
      </cc:Work>
    </rdf:RDF>
  </metadata>
  <g
     inkscape:label="Layer 1"
     inkscape:groupmode="layer"
     id="layer1"
     transform="translate(-46.852112,-49.183085)">
    <g
       aria-label="Makers' Den"
       style="font-style:normal;font-variant:normal;font-weight:normal;font-stretch:normal;font-size:16.93333244px;line-height:6.61458302px;font-family:Airstream;-inkscape-font-specification:'Airstream, Normal';font-variant-ligatures:normal;font-variant-caps:normal;font-variant-numeric:normal;font-feature-settings:normal;text-align:start;letter-spacing:0px;word-spacing:0px;writing-mode:lr-tb;text-anchor:start;fill-opacity:1;stroke:none;stroke-width:0.26458332px;stroke-linecap:butt;stroke-linejoin:miter;stroke-opacity:1"
       id="text4487">
      <path
         d="m 60.195578,49.572551 q -0.06773,0.135467 -0.135467,0.287867 -0.0508,0.135467 -0.135466,0.287867 0,0.01693 -0.01693,0.03387 0,0 0,0.01693 -0.1524,0.321733 -0.287866,0.626533 -0.135467,0.287867 -0.237067,0.474133 -0.118533,0.254 -0.254,0.541867 -0.135467,0.270933 -0.254,0.575733 -0.1524,0.287867 -0.287867,0.6096 -0.118533,0.3048 -0.254,0.6096 -0.3556,0.8636 -0.6096,1.710267 -0.254,0.829733 -0.254,1.4732 0,0.474133 0.254,0.778933 0.270934,0.3048 0.948267,0.321733 h 0.829733 l -0.541866,1.659467 h -0.287867 q -1.591733,0 -2.252133,-0.762 -0.643467,-0.762 -0.626534,-1.998133 0,-0.287867 0.03387,-0.575734 0.03387,-0.3048 0.1016,-0.6096 -0.677333,0.931334 -1.3716,1.913467 -0.694266,0.982133 -1.4732,2.032 h -1.794933 l 1.27,-5.1308 q -0.829733,1.303867 -1.7272,2.5908 -0.880533,1.286933 -1.862667,2.54 h -2.116666 q 0.389467,-0.508 0.795867,-1.032933 0.4064,-0.541867 0.8128,-1.1176 0.406399,-0.575734 0.812799,-1.1684 0.423334,-0.592667 0.829734,-1.185333 0.745066,-1.100667 1.439333,-2.1844 0.7112,-1.100667 1.3208,-2.065867 0.186267,-0.287867 0.372533,-0.575733 0.186267,-0.3048 0.423334,-0.677334 h 1.845733 l -1.439333,5.774267 q 0.118533,-0.169334 0.237066,-0.338667 0.135467,-0.186266 0.254,-0.3556 0.135467,-0.169333 0.254,-0.338666 0.135467,-0.186267 0.254,-0.3556 0.745067,-1.049867 1.507067,-2.1336 0.778933,-1.083734 1.6256,-2.252134 h 1.998133 z"
         style="font-style:normal;font-variant:normal;font-weight:normal;font-stretch:normal;font-size:16.93333244px;font-family:Airstream;-inkscape-font-specification:'Airstream, Normal';font-variant-ligatures:normal;font-variant-caps:normal;font-variant-numeric:normal;font-feature-settings:normal;text-align:start;writing-mode:lr-tb;text-anchor:start;stroke-width:0.26458332px"
         id="path4730"
         inkscape:connector-curvature="0" />
      <path
         d="m 66.519913,57.920684 -0.541866,1.6764 h -1.642534 q -0.270933,0 -0.491066,-0.08467 -0.220134,-0.08467 -0.4064,-0.220134 -0.254,0.1524 -0.5588,0.254 -0.287867,0.1016 -0.575733,0.135467 -0.1016,0.01693 -0.2032,0.01693 -0.1016,0.01693 -0.2032,0.01693 -0.524934,0 -0.999067,-0.237067 -0.4572,-0.237067 -0.728133,-0.762 -0.1016,-0.220133 -0.1524,-0.423333 -0.0508,-0.220134 -0.0508,-0.440267 0,-0.440267 0.169333,-0.846667 0.169333,-0.423333 0.440267,-0.778933 0.846666,-1.134533 2.099733,-1.591733 1.27,-0.474133 2.624666,-0.508 0.0508,0 0.1016,0 0.06773,0 0.135467,0 v 1.6764 q -0.541867,0 -1.083733,0.06773 -0.524934,0.06773 -1.016,0.254 -0.440267,0.1524 -0.829733,0.423333 -0.389467,0.270934 -0.677334,0.6604 -0.01693,0.03387 -0.0508,0.08467 -0.03387,0.0508 -0.06773,0.118533 -0.03387,0.0508 -0.06773,0.1016 -0.01693,0.0508 -0.0508,0.118534 -0.01693,0.0508 -0.03387,0.118533 -0.01693,0.06773 -0.01693,0.118533 0,0.06773 0.0508,0.135467 0.0508,0.0508 0.169333,0.0508 0.6604,0 0.982133,-0.440267 0.321734,-0.440266 0.508,-0.9652 0.03387,-0.118533 0.06773,-0.220133 0.03387,-0.1016 0.06773,-0.2032 l 1.591733,0.524933 -0.372533,1.1684 h 1.811866 z"
         style="font-style:normal;font-variant:normal;font-weight:normal;font-stretch:normal;font-size:16.93333244px;font-family:Airstream;-inkscape-font-specification:'Airstream, Normal';font-variant-ligatures:normal;font-variant-caps:normal;font-variant-numeric:normal;font-feature-settings:normal;text-align:start;writing-mode:lr-tb;text-anchor:start;stroke-width:0.26458332px"
         id="path4732"
         inkscape:connector-curvature="0" />
      <path
         d="m 72.517488,55.092818 -2.472267,1.8288 0.423333,0.9652 q 0.03387,0.01693 0.08467,0.03387 0.06773,0 0.135467,0 h 1.253066 l -0.5588,1.6764 h -0.694266 q -0.01693,0 -0.0508,0 -0.01693,0 -0.03387,0 -0.491067,-0.01693 -0.948267,-0.237066 -0.4572,-0.220134 -0.677333,-0.728134 l -0.440266,-0.999066 -0.643467,1.964266 h -1.761067 l 3.369733,-10.413999 h 1.761067 l -2.015067,6.248399 2.269067,-1.693333 0.999067,1.354667 z"
         style="font-style:normal;font-variant:normal;font-weight:normal;font-stretch:normal;font-size:16.93333244px;font-family:Airstream;-inkscape-font-specification:'Airstream, Normal';font-variant-ligatures:normal;font-variant-caps:normal;font-variant-numeric:normal;font-feature-settings:normal;text-align:start;writing-mode:lr-tb;text-anchor:start;stroke-width:0.26458332px"
         id="path4734"
         inkscape:connector-curvature="0" />
      <path
         d="m 78.097286,57.920684 -0.5588,1.6764 H 73.84702 q -0.4572,0 -0.8636,-0.186266 -0.389467,-0.2032 -0.6096,-0.6096 -0.1016,-0.186267 -0.1524,-0.4064 -0.0508,-0.220134 -0.0508,-0.440267 0,-0.0508 0,-0.1016 0.01693,-0.06773 0.01693,-0.135467 0.03387,-0.338666 0.135467,-0.677333 0.118533,-0.3556 0.237066,-0.643467 0.3556,-0.8128 0.8636,-1.337733 0.524934,-0.541866 1.083734,-0.8128 0.237066,-0.135466 0.4572,-0.2032 0.237066,-0.08467 0.4572,-0.118533 0.1016,-0.01693 0.2032,-0.01693 0.1016,-0.01693 0.220133,-0.01693 0.694267,0 1.236133,0.389467 0.541867,0.389467 0.541867,1.083733 0,0.135467 -0.03387,0.287867 -0.01693,0.135466 -0.08467,0.3048 -0.135466,0.423333 -0.5588,0.931333 -0.423333,0.491067 -1.185333,1.032933 h 2.3368 z m -2.218266,-2.3876 q -0.6096,0.03387 -1.0668,0.474134 -0.4572,0.440266 -0.677334,0.9652 0,0.01693 -0.01693,0.03387 0,0 0,0.01693 0.778933,-0.4572 1.185333,-0.829734 0.423334,-0.389466 0.575734,-0.6604 z"
         style="font-style:normal;font-variant:normal;font-weight:normal;font-stretch:normal;font-size:16.93333244px;font-family:Airstream;-inkscape-font-specification:'Airstream, Normal';font-variant-ligatures:normal;font-variant-caps:normal;font-variant-numeric:normal;font-feature-settings:normal;text-align:start;writing-mode:lr-tb;text-anchor:start;stroke-width:0.26458332px"
         id="path4736"
         inkscape:connector-curvature="0" />
      <path
         d="m 83.749579,55.804018 h -0.643466 q -0.1016,0.06773 -0.3048,0.270933 -0.2032,0.2032 -0.423334,0.4572 -0.06773,0.06773 -0.135466,0.1524 -0.06773,0.08467 -0.135467,0.1524 -0.220133,0.287867 -0.372533,0.541867 -0.1524,0.237066 -0.1524,0.389466 0.01693,0.06773 0.0508,0.118534 0.0508,0.03387 0.1524,0.03387 h 1.896533 l -0.541867,1.6764 q -0.118533,0 -0.3048,0 -0.169333,0 -0.372533,0 -0.2032,0 -0.389467,0 -0.169333,0 -0.287866,0 -0.524934,0 -0.982134,-0.237066 -0.440266,-0.237067 -0.694266,-0.7112 -0.0508,-0.1016 -0.08467,-0.2032 -0.03387,-0.1016 -0.0508,-0.220134 -0.03387,-0.1016 -0.0508,-0.2032 0,-0.1016 0,-0.2032 0,-0.541866 0.237067,-1.049866 0.237066,-0.524934 0.5588,-0.9652 h -0.270934 q -0.0508,0 -0.1016,0.01693 -0.03387,0 -0.08467,0.01693 -0.169334,0.0508 -0.321734,0.2032 -0.1524,0.135467 -0.220133,0.287867 -0.01693,0.01693 -0.03387,0.0508 0,0.01693 0,0.03387 l -0.135466,0.389466 -1.591733,-0.524933 0.931333,-2.912533 1.608666,0.524933 -0.08467,0.220134 h 3.335866 v 1.693333 z"
         style="font-style:normal;font-variant:normal;font-weight:normal;font-stretch:normal;font-size:16.93333244px;font-family:Airstream;-inkscape-font-specification:'Airstream, Normal';font-variant-ligatures:normal;font-variant-caps:normal;font-variant-numeric:normal;font-feature-settings:normal;text-align:start;writing-mode:lr-tb;text-anchor:start;stroke-width:0.26458332px"
         id="path4738"
         inkscape:connector-curvature="0" />
      <path
         d="m 88.028686,57.040151 q 0,1.134533 -0.694267,1.845733 -0.694266,0.7112 -1.845733,0.7112 h -1.710267 l 0.541867,-1.6764 h 1.1684 q 0.440267,0 0.643467,-0.2032 0.220133,-0.220133 0.220133,-0.677333 0,-0.237067 -0.0508,-0.440267 -0.0508,-0.220133 -0.135467,-0.389466 -0.321733,0.440266 -0.5588,0.762 -0.220133,0.3048 -0.220133,0.321733 l -1.354667,-0.982133 q 0,0 0.3556,-0.508 0.372534,-0.508 0.829734,-1.1176 0.423333,-0.6096 0.795866,-1.1176 0.372534,-0.508 0.372534,-0.524933 l 1.507066,0.745066 q -0.01693,0.01693 -0.2032,0.287867 -0.186266,0.270933 -0.474133,0.6604 0.389467,0.474133 0.592667,1.083733 0.220133,0.592667 0.220133,1.2192 z"
         style="font-style:normal;font-variant:normal;font-weight:normal;font-stretch:normal;font-size:16.93333244px;font-family:Airstream;-inkscape-font-specification:'Airstream, Normal';font-variant-ligatures:normal;font-variant-caps:normal;font-variant-numeric:normal;font-feature-settings:normal;text-align:start;writing-mode:lr-tb;text-anchor:start;stroke-width:0.26458332px"
         id="path4740"
         inkscape:connector-curvature="0" />
      <path
         d="m 90.954976,49.183085 -1.049866,1.947333 h -1.608667 l 1.0668,-1.947333 z"
         style="font-style:normal;font-variant:normal;font-weight:normal;font-stretch:normal;font-size:16.93333244px;font-family:Airstream;-inkscape-font-specification:'Airstream, Normal';font-variant-ligatures:normal;font-variant-caps:normal;font-variant-numeric:normal;font-feature-settings:normal;text-align:start;writing-mode:lr-tb;text-anchor:start;stroke-width:0.26458332px"
         id="path4742"
         inkscape:connector-curvature="0" />
      <path
         d="m 103.51104,50.436151 q 0.28787,0.3556 0.4064,0.762 0.13547,0.4064 0.13547,0.8636 0,0.795867 -0.4064,1.6764 -0.4064,0.880534 -1.15147,1.778 -0.44026,0.541867 -0.99906,1.0668 -0.5588,0.524933 -1.2192,1.032933 -0.609603,0.4572 -1.185336,0.795867 -0.575733,0.338667 -1.151467,0.575733 -0.118533,0.0508 -0.237066,0.1016 -0.1016,0.03387 -0.220134,0.06773 -0.372533,0.135466 -0.762,0.220133 -0.372533,0.06773 -0.745066,0.118533 -0.5588,0.06773 -1.134534,0.08467 -0.558799,0 -1.134533,0 -0.06773,0 -0.135466,0 -0.06773,0 -0.135467,0 l 2.1336,-6.536266 h 1.761066 l -1.557866,4.792133 q 0.982133,-0.135467 1.8288,-0.541867 0.8636,-0.4064 1.642533,-0.999067 0.237067,-0.186266 0.626533,-0.524933 0.406403,-0.338667 0.829733,-0.762 0.33867,-0.338666 0.6604,-0.7112 0.33867,-0.389466 0.59267,-0.778933 0.22013,-0.3556 0.33866,-0.694267 0.13547,-0.338666 0.13547,-0.6604 0,-0.220133 -0.0677,-0.4064 -0.0677,-0.2032 -0.23707,-0.372533 v -0.01693 q -0.16933,-0.186267 -0.49107,-0.270934 -0.32173,-0.08467 -0.762,-0.08467 -0.27093,0 -0.5588,0.03387 -0.28786,0.03387 -0.609596,0.08467 -1.016,0.169333 -2.1844,0.575733 -1.1684,0.389467 -2.370667,0.948267 -0.237066,0.1016 -0.474133,0.2032 -0.220133,0.1016 -0.440266,0.220133 l -0.728134,-1.524 q 0.287867,-0.135466 0.575734,-0.270933 0.3048,-0.135467 0.6096,-0.270933 1.236133,-0.524934 2.438399,-0.931334 1.2192,-0.4064 2.286,-0.592666 0.338667,-0.06773 0.694263,-0.1016 0.3556,-0.03387 0.72814,-0.03387 0.0339,0 0.0508,0 0.0339,0 0.0677,0 0.72813,0.01693 1.40547,0.254 0.69426,0.237067 1.15146,0.829733 z"
         style="font-style:normal;font-variant:normal;font-weight:normal;font-stretch:normal;font-size:16.93333244px;font-family:Airstream;-inkscape-font-specification:'Airstream, Normal';font-variant-ligatures:normal;font-variant-caps:normal;font-variant-numeric:normal;font-feature-settings:normal;text-align:start;writing-mode:lr-tb;text-anchor:start;stroke-width:0.26458332px"
         id="path4744"
         inkscape:connector-curvature="0" />
      <path
         d="m 108.87164,57.920684 -0.5588,1.6764 h -3.69147 q -0.4572,0 -0.8636,-0.186266 -0.38947,-0.2032 -0.6096,-0.6096 -0.1016,-0.186267 -0.1524,-0.4064 -0.0508,-0.220134 -0.0508,-0.440267 0,-0.0508 0,-0.1016 0.0169,-0.06773 0.0169,-0.135467 0.0339,-0.338666 0.13547,-0.677333 0.11853,-0.3556 0.23707,-0.643467 0.3556,-0.8128 0.8636,-1.337733 0.52493,-0.541866 1.08373,-0.8128 0.23707,-0.135466 0.4572,-0.2032 0.23707,-0.08467 0.4572,-0.118533 0.1016,-0.01693 0.2032,-0.01693 0.1016,-0.01693 0.22013,-0.01693 0.69427,0 1.23614,0.389467 0.54186,0.389467 0.54186,1.083733 0,0.135467 -0.0339,0.287867 -0.0169,0.135466 -0.0847,0.3048 -0.13547,0.423333 -0.5588,0.931333 -0.42333,0.491067 -1.18533,1.032933 h 2.3368 z m -2.21827,-2.3876 q -0.6096,0.03387 -1.0668,0.474134 -0.4572,0.440266 -0.67733,0.9652 0,0.01693 -0.0169,0.03387 0,0 0,0.01693 0.77894,-0.4572 1.18534,-0.829734 0.42333,-0.389466 0.57573,-0.6604 z"
         style="font-style:normal;font-variant:normal;font-weight:normal;font-stretch:normal;font-size:16.93333244px;font-family:Airstream;-inkscape-font-specification:'Airstream, Normal';font-variant-ligatures:normal;font-variant-caps:normal;font-variant-numeric:normal;font-feature-settings:normal;text-align:start;writing-mode:lr-tb;text-anchor:start;stroke-width:0.26458332px"
         id="path4746"
         inkscape:connector-curvature="0" />
      <path
         d="m 115.59033,57.920684 -0.5588,1.6764 h -1.1684 q -0.62653,0 -1.016,-0.4064 -0.38947,-0.4064 -0.38947,-0.982133 0,-0.118533 0.0169,-0.237067 0.0339,-0.135466 0.0677,-0.254 0.0339,-0.118533 0.0677,-0.220133 0.0339,-0.118533 0.0677,-0.220133 0.0677,-0.220134 0.13546,-0.440267 0.0677,-0.220133 0.13547,-0.440267 0.0169,-0.03387 0.0169,-0.06773 0.0169,-0.03387 0.0169,-0.06773 0.0339,-0.08467 0.0508,-0.186267 0.0339,-0.1016 0.0508,-0.2032 -0.13547,0.0508 -0.32174,0.169333 -0.18626,0.118534 -0.37253,0.287867 -0.47413,0.4064 -0.89747,0.9652 -0.4064,0.5588 -0.64346,1.151467 l -0.37254,1.151466 h -1.76106 l 1.778,-5.486399 h 1.76106 l -0.11853,0.3556 q 0.18627,-0.1016 0.37253,-0.169334 0.2032,-0.08467 0.4064,-0.118533 0.1016,-0.03387 0.18627,-0.03387 0.1016,-0.01693 0.2032,-0.01693 0.13547,0 0.27093,0.03387 0.1524,0.01693 0.27094,0.06773 0.49106,0.169333 0.7112,0.592667 0.22013,0.423333 0.22013,0.914399 0,0.254 -0.0677,0.5588 -0.0508,0.287867 -0.16934,0.626534 -0.0508,0.118533 -0.0847,0.254 -0.0339,0.118533 -0.0677,0.237066 -0.0169,0.0508 -0.0339,0.1016 -0.0169,0.03387 -0.0169,0.06773 -0.0339,0.08467 -0.0508,0.169333 -0.0169,0.08467 -0.0508,0.169333 h 1.35467 z"
         style="font-style:normal;font-variant:normal;font-weight:normal;font-stretch:normal;font-size:16.93333244px;font-family:Airstream;-inkscape-font-specification:'Airstream, Normal';font-variant-ligatures:normal;font-variant-caps:normal;font-variant-numeric:normal;font-feature-settings:normal;text-align:start;writing-mode:lr-tb;text-anchor:start;stroke-width:0.26458332px"
         id="path4748"
         inkscape:connector-curvature="0" />
    </g>
  </g>
</svg>
